Coordinates
version=1
nRows=34
nColumns=38
inDegrees=no

Units are S.I. units (second, meters, Newtons, ...)
If the header above contains a line with 'inDegrees', this indicates whether rotational values are in degrees (yes) or radians (no).

endheader
time	pelvis_tilt	pelvis_list	pelvis_rotation	pelvis_tx	pelvis_ty	pelvis_tz	hip_flexion_r	hip_adduction_r	hip_rotation_r	knee_angle_r	ankle_angle_r	subtalar_angle_r	mtp_angle_r	hip_flexion_l	hip_adduction_l	hip_rotation_l	knee_angle_l	ankle_angle_l	subtalar_angle_l	mtp_angle_l	lumbar_extension	lumbar_bending	lumbar_rotation	arm_flex_r	arm_add_r	arm_rot_r	elbow_flex_r	pro_sup_r	wrist_flex_r	wrist_dev_r	arm_flex_l	arm_add_l	arm_rot_l	elbow_flex_l	pro_sup_l	wrist_flex_l	wrist_dev_l
0	-2.63517	1.47254	-2.03777	0.798941	-0.638451	1.04323	-0.183578	-0.145222	0.0276475	0.819928	-0.441853	0	0	0.0887977	0.0318927	-0.0822348	0.270975	-0.195591	0	0	-0.388355	-0.0375976	0.176283	0.0967473	-0.59415	0.87968	0.85649	0.580639	0	0	0.143167	-0.311238	0.547715	0.582379	1.01329	0	0
0.01	-2.63467	1.47221	-2.04159	0.79577	-0.628258	1.04501	-0.162876	-0.149499	0.0413223	0.857205	-0.468848	0	0	0.0705097	0.035646	-0.087772	0.255751	-0.198862	0	0	-0.387261	-0.037797	0.1766	0.0974853	-0.59467	0.879404	0.854167	0.582271	0	0	0.141336	-0.307866	0.547112	0.579219	1.01152	0	0
0.02	-2.66232	1.47006	-2.01412	0.79239	-0.618451	1.04701	-0.145801	-0.149976	0.0517249	0.891961	-0.503418	0	0	0.0523834	0.0374906	-0.0943357	0.247906	-0.200416	0	0	-0.389515	-0.0347521	0.174894	0.0977398	-0.597263	0.877086	0.855483	0.584114	0	0	0.140547	-0.304966	0.547072	0.577834	1.00884	0	0
0.03	-2.70412	1.46744	-1.97196	0.789046	-0.608976	1.04902	-0.129199	-0.148011	0.0620138	0.926831	-0.536326	0	0	0.0350342	0.0379786	-0.102797	0.244364	-0.198836	0	0	-0.393957	-0.0300892	0.173179	0.0979704	-0.601849	0.874173	0.859916	0.586641	0	0	0.14003	-0.303259	0.547829	0.579538	1.00546	0	0
0.04	-2.72664	1.46617	-1.94943	0.785909	-0.599552	1.05041	-0.105393	-0.147879	0.0703511	0.971923	-0.562959	0	0	0.020833	0.0396084	-0.11236	0.242982	-0.195146	0	0	-0.395217	-0.0268665	0.171592	0.0971198	-0.606924	0.87188	0.866104	0.591269	0	0	0.138406	-0.30339	0.54963	0.583193	1.00207	0	0
0.05	-2.77434	1.46366	-1.9023	0.782826	-0.59034	1.05229	-0.0878146	-0.143364	0.0810071	1.00596	-0.587588	0	0	0.00396271	0.0385492	-0.121817	0.240175	-0.192645	0	0	-0.399706	-0.0214487	0.170847	0.09731	-0.613003	0.86899	0.872789	0.595749	0	0	0.137693	-0.302576	0.550737	0.586229	0.998994	0	0
0.06	-2.82289	1.46029	-1.85489	0.779919	-0.581308	1.05421	-0.0709282	-0.13746	0.0922312	1.03805	-0.604119	0	0	-0.013995	0.0366761	-0.13073	0.236145	-0.191648	0	0	-0.40547	-0.0162633	0.170689	0.0979478	-0.619173	0.865638	0.879833	0.598561	0	0	0.137484	-0.301966	0.55149	0.589787	0.996213	0	0
0.07	-2.87805	1.45447	-1.80047	0.777041	-0.572512	1.05643	-0.0584425	-0.129584	0.098418	1.05658	-0.661309	0	0	-0.0349415	0.033637	-0.138905	0.230439	-0.191967	0	0	-0.414601	-0.0104381	0.170564	0.0990815	-0.62617	0.86183	0.888336	0.600656	0	0	0.138366	-0.301559	0.552869	0.594068	0.993107	0	0
0.08	-2.91843	1.45007	-1.76169	0.774549	-0.563916	1.05822	-0.0413521	-0.121843	0.114439	1.09564	-0.591392	0	0	-0.0529917	0.0309024	-0.147188	0.225085	-0.192503	0	0	-0.421568	-0.00619702	0.170768	0.101008	-0.632615	0.859609	0.896676	0.602922	0	0	0.138689	-0.302209	0.553628	0.599308	0.98909	0	0
0.09	-2.96408	1.44377	-1.71764	0.772201	-0.555332	1.06021	-0.0278435	-0.112619	0.124487	1.12113	-0.5673	0	0	-0.0728936	0.0269145	-0.157646	0.21975	-0.19365	0	0	-0.430463	-0.00121115	0.171237	0.103388	-0.639581	0.857992	0.905979	0.604136	0	0	0.139209	-0.303066	0.554552	0.605028	0.984367	0	0
0.1	-3.00829	1.43647	-1.67513	0.769951	-0.546712	1.06219	-0.0154903	-0.102887	0.133187	1.14286	-0.543374	0	0	-0.0933768	0.022388	-0.170611	0.21583	-0.194493	0	0	-0.439786	0.00420188	0.172184	0.105483	-0.646889	0.856513	0.915977	0.603086	0	0	0.140051	-0.303808	0.556376	0.610353	0.979887	0	0
0.11	-3.04739	1.42872	-1.63786	0.767639	-0.537994	1.06415	-0.00448151	-0.0936783	0.140291	1.16035	-0.517723	0	0	-0.114284	0.0182824	-0.186127	0.212572	-0.195112	0	0	-0.449182	0.00965541	0.173175	0.108017	-0.654374	0.856411	0.925592	0.60183	0	0	0.140867	-0.30436	0.558653	0.615246	0.97646	0	0
0.12	-3.08338	1.42118	-1.60405	0.765315	-0.529216	1.06601	0.00665603	-0.0843083	0.147195	1.1731	-0.493573	0	0	-0.134938	0.0144156	-0.203137	0.209135	-0.195955	0	0	-0.457891	0.0152242	0.174962	0.110888	-0.661681	0.857934	0.933885	0.600771	0	0	0.141863	-0.303861	0.560364	0.618838	0.973291	0	0
0.13	-3.11748	1.41333	-1.57261	0.763104	-0.520354	1.06776	0.0172895	-0.0747664	0.15348	1.18189	-0.469305	0	0	-0.15622	0.0104944	-0.219775	0.2049	-0.196789	0	0	-0.466626	0.0208219	0.17771	0.113463	-0.668817	0.859238	0.941593	0.597745	0	0	0.142779	-0.303095	0.561883	0.622419	0.970019	0	0
0.14	-3.13699	1.43324	-1.5384	0.75907	-0.514105	1.06634	0.0648064	-0.0687731	0.147044	1.19821	-0.450477	0	0	-0.131441	0.00869614	-0.192121	0.222503	-0.188243	0	0	-0.452789	0.0282457	0.165375	0.11927	-0.667574	0.858164	0.938939	0.597767	0	0	0.14894	-0.302193	0.562626	0.621558	0.969727	0	0
0.15	3.10846	1.43829	-1.49713	0.756793	-0.50606	1.06659	0.091607	-0.059056	0.148311	1.20319	-0.431826	0	0	-0.132218	0.00391323	-0.190345	0.227077	-0.183111	0	0	-0.448885	0.0340155	0.162687	0.124071	-0.666151	0.859949	0.935135	0.598453	0	0	0.15133	-0.301098	0.562102	0.620502	0.969588	0	0
0.16	3.06954	1.44209	-1.4541	0.754442	-0.498147	1.0669	0.11564	-0.0499625	0.147859	1.20382	-0.407355	0	0	-0.133936	-0.000555254	-0.187918	0.230851	-0.178192	0	0	-0.446585	0.0399762	0.159673	0.129536	-0.665187	0.862685	0.93146	0.598733	0	0	0.154161	-0.299762	0.56142	0.619507	0.969832	0	0
0.17	3.03044	1.44461	-1.41113	0.752144	-0.49031	1.06722	0.13809	-0.0413856	0.14629	1.20031	-0.384574	0	0	-0.136955	-0.00479751	-0.185459	0.233979	-0.173959	0	0	-0.445811	0.0457053	0.157299	0.135643	-0.664621	0.866506	0.927741	0.599265	0	0	0.157464	-0.29842	0.561065	0.618938	0.970474	0	0
0.18	2.9899	1.44727	-1.36911	0.750056	-0.48216	1.06737	0.160387	-0.0328816	0.146408	1.19248	-0.366008	0	0	-0.140879	-0.00863323	-0.186397	0.235914	-0.170411	0	0	-0.444479	0.0506478	0.15696	0.141369	-0.664216	0.870748	0.923752	0.600274	0	0	0.160119	-0.29655	0.560545	0.617825	0.971345	0	0
0.19	2.9487	1.4504	-1.3279	0.748119	-0.473821	1.06737	0.182764	-0.0244613	0.148564	1.18093	-0.349296	0	0	-0.144923	-0.0118694	-0.189046	0.237171	-0.166678	0	0	-0.442255	0.0547145	0.157763	0.145984	-0.663658	0.874039	0.919811	0.599895	0	0	0.162217	-0.294234	0.559195	0.616074	0.97263	0	0
0.2	2.91514	1.45233	-1.29217	0.746054	-0.465891	1.06737	0.203288	-0.0174925	0.149031	1.16591	-0.335211	0	0	-0.149144	-0.0143638	-0.188075	0.239539	-0.162693	0	0	-0.441759	0.0586483	0.15708	0.150483	-0.663606	0.876532	0.917229	0.598009	0	0	0.16563	-0.292194	0.558113	0.614744	0.974173	0	0
0.21	2.88528	1.45401	-1.26068	0.744065	-0.457928	1.06725	0.222712	-0.0111242	0.14888	1.14665	-0.323518	0	0	-0.153882	-0.0162211	-0.187774	0.241561	-0.158757	0	0	-0.44159	0.0620834	0.15676	0.15499	-0.663955	0.879334	0.914982	0.596046	0	0	0.168911	-0.290081	0.556871	0.613582	0.975671	0	0
0.22	2.85437	1.45538	-1.22929	0.742211	-0.449846	1.06703	0.240619	-0.00378644	0.149434	1.12378	-0.311044	0	0	-0.159316	-0.0180878	-0.18916	0.243014	-0.154272	0	0	-0.441607	0.0652702	0.15744	0.15974	-0.664459	0.883108	0.912507	0.593954	0	0	0.171946	-0.287641	0.55517	0.612248	0.977716	0	0
0.23	2.82991	1.45624	-1.20501	0.740466	-0.441771	1.06675	0.257645	0.00242831	0.150828	1.10004	-0.300281	0	0	-0.165819	-0.0191214	-0.19125	0.243863	-0.150446	0	0	-0.442328	0.0675195	0.158676	0.164186	-0.665349	0.886636	0.910743	0.591934	0	0	0.174788	-0.285668	0.55342	0.611826	0.979627	0	0
0.24	2.81606	1.45847	-1.19074	0.738574	-0.433362	1.06613	0.262435	-0.00569305	0.161852	1.0807	-0.251191	0	0	-0.171891	-0.0180801	-0.192796	0.244637	-0.144969	0	0	-0.440556	0.0684986	0.158773	0.16777	-0.666086	0.891475	0.908826	0.587698	0	0	0.176363	-0.283562	0.550442	0.61067	0.984184	0	0
0.25	2.78852	1.4623	-1.16391	0.737177	-0.425098	1.06533	0.294539	0.0104905	0.153384	1.05086	-0.275084	0	0	-0.175279	-0.0184457	-0.195	0.246199	-0.141523	0	0	-0.4378	0.0691015	0.160264	0.1709	-0.665802	0.894161	0.906481	0.585011	0	0	0.178437	-0.282547	0.54896	0.610434	0.986581	0	0
0.26	2.78041	1.46516	-1.15388	0.735425	-0.417008	1.06457	0.31157	0.0117609	0.153687	1.02425	-0.274257	0	0	-0.179789	-0.016911	-0.193443	0.248025	-0.138283	0	0	-0.436639	0.0691619	0.159193	0.173866	-0.666022	0.896119	0.905445	0.58287	0	0	0.181162	-0.282189	0.548239	0.610982	0.98799	0	0
0.27	2.77399	1.46788	-1.14622	0.733805	-0.408788	1.06374	0.327461	0.0127162	0.156059	0.996805	-0.269036	0	0	-0.18491	-0.0152583	-0.192518	0.249517	-0.133747	0	0	-0.435443	0.0688294	0.158501	0.176872	-0.666325	0.898613	0.904599	0.579684	0	0	0.183146	-0.282097	0.546796	0.612195	0.989833	0	0
0.28	2.7682	1.47035	-1.13971	0.732308	-0.400406	1.06285	0.340764	0.013866	0.157851	0.968081	-0.260774	0	0	-0.190784	-0.0137898	-0.192734	0.250556	-0.129975	0	0	-0.434314	0.0684101	0.158357	0.17909	-0.666902	0.900498	0.904396	0.576741	0	0	0.184626	-0.28239	0.545626	0.614084	0.991524	0	0
0.29	2.76115	1.47282	-1.13182	0.730854	-0.391936	1.06188	0.353421	0.0146495	0.158793	0.939016	-0.251901	0	0	-0.196484	-0.0126917	-0.193332	0.25218	-0.126152	0	0	-0.433108	0.0683056	0.158192	0.180567	-0.667749	0.901389	0.904844	0.574065	0	0	0.185968	-0.282783	0.544654	0.616235	0.992779	0	0
0.3	2.75492	1.47567	-1.12426	0.729408	-0.383403	1.06082	0.36609	0.0145269	0.159771	0.909117	-0.243614	0	0	-0.201552	-0.0116415	-0.193863	0.254571	-0.122176	0	0	-0.431442	0.0682635	0.157592	0.181447	-0.668722	0.901695	0.905904	0.572525	0	0	0.187223	-0.283292	0.543968	0.618474	0.994019	0	0
0.31	2.7475	1.4789	-1.11494	0.727914	-0.374687	1.05966	0.376988	0.0142749	0.159159	0.876633	-0.234167	0	0	-0.206125	-0.0107544	-0.194203	0.257391	-0.118008	0	0	-0.428977	0.0685258	0.156447	0.181261	-0.66969	0.901017	0.907403	0.572397	0	0	0.188013	-0.283815	0.543394	0.620577	0.995503	0	0
0.32	2.73583	1.48252	-1.10171	0.726515	-0.365895	1.05838	0.387854	0.014232	0.158082	0.843759	-0.225863	0	0	-0.209958	-0.0101871	-0.195092	0.260849	-0.114272	0	0	-0.425856	0.0687918	0.155966	0.18014	-0.670692	0.899413	0.90903	0.572711	0	0	0.188524	-0.28431	0.542676	0.622969	0.996357	0	0
0.33	2.71864	1.48681	-1.08334	0.725183	-0.357003	1.05693	0.399452	0.0142383	0.156564	0.811116	-0.218993	0	0	-0.212687	-0.00970167	-0.196232	0.265161	-0.110377	0	0	-0.421704	0.0690572	0.155877	0.17797	-0.671685	0.89619	0.910849	0.572705	0	0	0.188578	-0.284766	0.541829	0.625478	0.997257	0	0
